<svg data-v-423bf9ae="" xmlns="http://www.w3.org/2000/svg" viewBox="0 0 516.5013590959184 60" class="font"><!----><!----><!----><g data-v-423bf9ae="" id="a4abc96f-456a-4173-a030-dcdb0d551e79" fill="white" transform="matrix(5.591062981234461,0,0,5.591062981234461,-0.5042490973632425,-0.7268387569466626)"><path d="M2.28 0.66L2.28 0.66L4.21 5.42C4.27 5.54 4.47 5.54 4.52 5.42L6.30 1.02L8.09 5.42C8.15 5.54 8.34 5.54 8.40 5.42L10.35 0.66C10.37 0.57 10.33 0.49 10.23 0.45C10.16 0.41 10.07 0.46 10.04 0.55L8.25 4.91L6.47 0.55C6.45 0.50 6.41 0.48 6.37 0.45C6.29 0.41 6.19 0.46 6.16 0.55L4.38 4.91L2.59 0.55C2.56 0.46 2.45 0.41 2.37 0.45C2.30 0.49 2.25 0.57 2.28 0.66ZM12.22 0.55L12.22 0.55L8.25 10.28L6.47 5.89C6.41 5.75 6.22 5.77 6.16 5.89L4.38 10.28L0.39 0.55C0.36 0.46 0.27 0.41 0.20 0.45C0.11 0.49 0.06 0.57 0.11 0.66L4.21 10.77C4.23 10.81 4.26 10.84 4.31 10.85C4.40 10.88 4.48 10.85 4.52 10.77L6.30 6.37L8.09 10.77C8.11 10.81 8.13 10.84 8.19 10.85C8.27 10.88 8.36 10.85 8.40 10.77L12.52 0.66C12.54 0.57 12.52 0.49 12.43 0.45C12.33 0.41 12.25 0.46 12.22 0.55ZM18.16 6.33L18.16 6.33L15.92 6.33C15.82 6.33 15.75 6.40 15.75 6.50L15.75 8.50C15.75 8.58 15.82 8.65 15.92 8.65L19.10 8.65C19.18 8.65 19.25 8.58 19.25 8.50C19.25 8.40 19.18 8.33 19.10 8.33L16.07 8.33L16.07 6.65L18.16 6.65C18.26 6.65 18.33 6.58 18.33 6.50C18.33 6.40 18.26 6.33 18.16 6.33ZM19.10 2.34L19.10 2.34L15.92 2.34C15.82 2.34 15.75 2.41 15.75 2.49L15.75 4.49C15.75 4.58 15.82 4.66 15.92 4.66L18.16 4.66C18.26 4.66 18.33 4.58 18.33 4.49C18.33 4.41 18.26 4.33 18.16 4.33L16.07 4.33L16.07 2.66L19.10 2.66C19.18 2.66 19.25 2.59 19.25 2.49C19.25 2.41 19.18 2.34 19.10 2.34ZM19.10 10.33L19.10 10.33L14.07 10.33L14.07 0.66L19.10 0.66C19.18 0.66 19.25 0.59 19.25 0.49C19.25 0.41 19.18 0.34 19.10 0.34L13.92 0.34C13.82 0.34 13.75 0.41 13.75 0.49L13.75 10.50C13.75 10.58 13.82 10.65 13.92 10.65L19.10 10.65C19.18 10.65 19.25 10.58 19.25 10.50C19.25 10.40 19.18 10.33 19.10 10.33ZM25.06 8.67L25.06 8.67C25.73 8.67 26.26 8.16 26.26 7.49C26.26 6.83 25.73 6.34 25.06 6.34L23.31 6.34C23.21 6.34 23.13 6.41 23.13 6.50C23.13 6.58 23.21 6.65 23.31 6.65L25.06 6.65C25.54 6.65 25.93 7 25.93 7.49C25.93 7.98 25.54 8.33 25.06 8.33L24.49 8.33C24.40 8.33 24.33 8.41 24.33 8.50C24.33 8.58 24.40 8.67 24.49 8.67ZM23.31 2.65L23.31 2.65L25.06 2.65C25.54 2.65 25.93 3.00 25.93 3.49C25.93 3.98 25.54 4.33 25.06 4.33L24.49 4.33C24.40 4.33 24.33 4.40 24.33 4.49C24.33 4.58 24.40 4.65 24.49 4.65L25.06 4.65C25.73 4.65 26.26 4.14 26.26 3.49C26.26 2.83 25.73 2.32 25.06 2.32L23.31 2.32C23.20 2.32 23.13 2.39 23.13 2.48C23.13 2.56 23.20 2.65 23.31 2.65ZM21.46 10.50L21.46 10.50L21.46 0.63L25.24 0.63C26.81 0.63 28.04 1.92 28.04 3.49C28.04 4.19 27.80 4.86 27.34 5.39C27.29 5.45 27.29 5.54 27.34 5.60C27.80 6.13 28.04 6.79 28.04 7.49C28.04 9.04 26.81 10.35 25.24 10.35L23.31 10.35C23.21 10.35 23.14 10.42 23.14 10.50C23.14 10.61 23.21 10.68 23.31 10.68L25.24 10.68C26.99 10.68 28.38 9.24 28.38 7.49C28.38 6.76 28.13 6.06 27.68 5.49C28.13 4.93 28.38 4.21 28.38 3.49C28.38 1.74 26.99 0.29 25.24 0.29L21.28 0.29C21.20 0.29 21.13 0.38 21.13 0.48L21.13 10.50C21.13 10.61 21.20 10.68 21.28 10.68C21.38 10.68 21.46 10.61 21.46 10.50ZM33.75 9.98L33.75 9.98C34.31 10.26 34.85 10.44 35.35 10.56C37.90 11.16 40.15 10.07 40.15 7.53C40.15 5.00 37.09 4.48 36.46 4.00C36.26 3.85 36.15 3.63 36.15 3.42C36.13 2.94 36.51 2.69 36.93 2.63C37.59 2.56 38.44 2.83 38.93 3.02C39.13 3.11 39.26 2.81 39.06 2.73C38.25 2.39 37.62 2.27 36.95 2.31C36.30 2.34 35.80 2.81 35.83 3.46C35.91 4.73 37.65 4.47 39.02 5.75C40.21 6.85 40.00 8.60 39.05 9.56C37.80 10.81 35.53 10.54 33.92 9.70C33.73 9.60 33.57 9.88 33.75 9.98ZM39.31 0.71L39.31 0.71C38.65 0.49 38.15 0.38 37.76 0.32C35.50 0.01 33.81 1.32 33.81 3.49C33.81 6.09 36.88 6.45 37.53 7C37.86 7.29 37.91 7.80 37.58 8.11C36.88 8.75 35.07 8.23 34.19 7.62C34.02 7.50 33.82 7.76 34.01 7.88C34.90 8.54 36.04 8.76 36.92 8.71C37.58 8.67 38.16 8.20 38.12 7.55C38.04 6.26 36.33 6.50 34.96 5.31C33.75 4.23 33.98 2.45 34.87 1.48C35.98 0.28 37.70 0.49 39.20 1.01C39.40 1.09 39.51 0.78 39.31 0.71ZM48.15 2.34L48.15 2.34L45.64 2.34C45.56 2.34 45.49 2.41 45.49 2.49L45.49 10.50C45.49 10.58 45.56 10.65 45.64 10.65C45.72 10.65 45.79 10.58 45.79 10.50L45.79 2.67L48.15 2.67C48.23 2.67 48.30 2.59 48.30 2.49C48.30 2.41 48.23 2.34 48.15 2.34ZM41.15 0.66L41.15 0.66L48.13 0.66C48.23 0.66 48.30 0.59 48.30 0.50C48.30 0.42 48.23 0.35 48.13 0.35L41.15 0.35C41.06 0.35 40.99 0.42 40.99 0.50C40.99 0.59 41.06 0.66 41.15 0.66ZM41.15 2.67L41.15 2.67L43.48 2.67L43.48 10.50C43.48 10.58 43.55 10.65 43.65 10.65C43.74 10.65 43.81 10.58 43.81 10.50L43.81 2.49C43.81 2.41 43.74 2.34 43.65 2.34L41.15 2.34C41.06 2.34 40.99 2.41 40.99 2.49C40.99 2.59 41.06 2.67 41.15 2.67ZM51.79 6.85L51.79 6.85C51.79 7.91 52.53 8.67 53.58 8.67C54.63 8.67 55.38 7.91 55.38 6.85L55.38 0.50C55.38 0.42 55.31 0.35 55.22 0.35C55.13 0.35 55.06 0.42 55.06 0.50L55.06 6.85C55.06 7.73 54.46 8.36 53.58 8.36C52.71 8.36 52.09 7.73 52.09 6.85L52.09 0.50C52.09 0.42 52.02 0.35 51.94 0.35C51.86 0.35 51.79 0.42 51.79 0.50ZM57.08 0.50L57.08 0.50L57.08 6.96C57.08 9.06 55.52 10.40 53.58 10.40C51.55 10.40 50.08 9.00 50.08 6.96L50.08 0.50C50.08 0.42 50.01 0.35 49.92 0.35C49.83 0.35 49.76 0.42 49.76 0.50L49.76 6.96C49.76 9.17 51.38 10.72 53.58 10.72C55.72 10.72 57.40 9.24 57.40 6.96L57.40 0.50C57.40 0.42 57.33 0.35 57.25 0.35C57.15 0.35 57.08 0.42 57.08 0.50ZM62.76 0.34L62.76 0.34L59.77 0.34C59.68 0.34 59.61 0.41 59.61 0.49L59.61 10.50C59.61 10.58 59.68 10.65 59.77 10.65C59.86 10.65 59.93 10.58 59.93 10.50L59.93 0.66L62.76 0.66C65.09 0.66 66.57 1.90 67.21 3.51C67.72 4.76 67.72 6.23 67.21 7.48C66.57 9.09 65.09 10.33 62.76 10.33L61.75 10.33C61.66 10.33 61.59 10.40 61.59 10.50C61.59 10.58 61.66 10.65 61.75 10.65L62.76 10.65C65.24 10.65 66.82 9.31 67.51 7.60C68.05 6.27 68.05 4.72 67.51 3.39C66.82 1.67 65.24 0.34 62.76 0.34ZM61.94 6.50L61.94 6.50L61.94 2.65L62.76 2.65C64.08 2.65 64.92 3.39 65.30 4.33C65.58 5.05 65.58 5.92 65.30 6.66C64.92 7.60 64.08 8.33 62.76 8.33L61.77 8.33C61.68 8.33 61.60 8.41 61.60 8.50C61.60 8.58 61.68 8.67 61.77 8.67L62.76 8.67C64.23 8.67 65.18 7.84 65.59 6.78C65.91 5.96 65.91 5.03 65.59 4.20C65.18 3.15 64.23 2.32 62.76 2.32L61.77 2.32C61.68 2.32 61.60 2.39 61.60 2.49L61.60 6.50C61.60 6.58 61.68 6.65 61.77 6.65C61.85 6.65 61.94 6.58 61.94 6.50ZM72.13 10.50L72.13 10.50L72.13 0.49C72.13 0.41 72.06 0.34 71.97 0.34C71.88 0.34 71.81 0.41 71.81 0.49L71.81 10.50C71.81 10.58 71.88 10.65 71.97 10.65C72.06 10.65 72.13 10.58 72.13 10.50ZM70.13 10.50L70.13 10.50L70.13 0.49C70.13 0.41 70.06 0.34 69.97 0.34C69.87 0.34 69.80 0.41 69.80 0.49L69.80 10.50C69.80 10.58 69.87 10.65 69.97 10.65C70.06 10.65 70.13 10.58 70.13 10.50ZM84.56 3.86L84.56 3.86C83.85 1.64 81.72 0.13 79.38 0.13C76.22 0.13 74.03 2.39 74.03 5.47C74.03 8.57 76.22 10.84 79.38 10.84C81.72 10.84 83.85 9.34 84.56 7.08C84.59 7 84.53 6.90 84.45 6.87C84.35 6.85 84.27 6.89 84.24 6.99C83.57 9.10 81.59 10.50 79.38 10.50C76.41 10.50 74.35 8.39 74.35 5.47C74.35 2.56 76.41 0.46 79.38 0.46C81.59 0.46 83.57 1.86 84.24 3.96C84.27 4.06 84.35 4.10 84.45 4.07C84.53 4.06 84.59 3.95 84.56 3.86ZM76.58 7.11L76.58 7.11C77.15 8.12 78.22 8.76 79.38 8.76C81.19 8.76 82.61 7.27 82.61 5.47C82.61 3.70 81.19 2.20 79.38 2.20C78.22 2.20 77.15 2.83 76.58 3.84C76.54 3.92 76.57 4.02 76.64 4.07C76.72 4.12 76.83 4.09 76.87 4.00C77.38 3.09 78.33 2.52 79.38 2.52C81.00 2.52 82.28 3.86 82.28 5.47C82.28 7.08 81.00 8.43 79.38 8.43C78.33 8.43 77.38 7.85 76.87 6.94C76.83 6.87 76.72 6.85 76.64 6.89C76.57 6.93 76.54 7.04 76.58 7.11ZM86.07 9.98L86.07 9.98C86.63 10.26 87.16 10.44 87.67 10.56C90.22 11.16 92.47 10.07 92.47 7.53C92.47 5.00 89.40 4.48 88.77 4.00C88.58 3.85 88.47 3.63 88.47 3.42C88.45 2.94 88.83 2.69 89.25 2.63C89.91 2.56 90.76 2.83 91.25 3.02C91.45 3.11 91.57 2.81 91.38 2.73C90.57 2.39 89.94 2.27 89.26 2.31C88.62 2.34 88.12 2.81 88.14 3.46C88.23 4.73 89.96 4.47 91.34 5.75C92.53 6.85 92.32 8.60 91.36 9.56C90.12 10.81 87.85 10.54 86.24 9.70C86.04 9.60 85.89 9.88 86.07 9.98ZM91.63 0.71L91.63 0.71C90.97 0.49 90.47 0.38 90.08 0.32C87.82 0.01 86.13 1.32 86.13 3.49C86.13 6.09 89.19 6.45 89.85 7C90.17 7.29 90.23 7.80 89.89 8.11C89.19 8.75 87.39 8.23 86.51 7.62C86.34 7.50 86.14 7.76 86.32 7.88C87.22 8.54 88.35 8.76 89.24 8.71C89.89 8.67 90.48 8.20 90.44 7.55C90.36 6.26 88.65 6.50 87.28 5.31C86.07 4.23 86.30 2.45 87.19 1.48C88.30 0.28 90.02 0.49 91.52 1.01C91.71 1.09 91.83 0.78 91.63 0.71Z"></path></g><!----><!----></svg>