<svg data-v-423bf9ae="" xmlns="http://www.w3.org/2000/svg" viewBox="0 0 NaN 90" class="iconLeft"><!----><!----><defs data-v-423bf9ae=""><linearGradient data-v-423bf9ae="" gradientTransform="rotate(25)" id="627135be-aa80-48ea-85f2-e911b4dce129" x1="0%" y1="0%" x2="100%" y2="0%"><stop data-v-423bf9ae="" offset="0%" style="stop-color: rgb(134, 157, 241); stop-opacity: 1;"></stop><stop data-v-423bf9ae="" offset="100%" style="stop-color: rgb(134, 157, 241); stop-opacity: 1;"></stop></linearGradient></defs><g data-v-423bf9ae="" id="f5f65b25-5a70-4eb4-b5e8-c98c21604238" fill="url(#627135be-aa80-48ea-85f2-e911b4dce129)" transform="matrix(Infinity,0,0,Infinity,0,45)"><path d=""></path></g><defs data-v-423bf9ae=""><linearGradient data-v-423bf9ae="" gradientTransform="rotate(25)" id="e9b470e8-9f21-4160-b0d8-cf1d4b2d8ccc" x1="0%" y1="0%" x2="100%" y2="0%"><stop data-v-423bf9ae="" offset="0%" style="stop-color: rgb(1, 0, 51); stop-opacity: 1;"></stop><stop data-v-423bf9ae="" offset="100%" style="stop-color: rgb(134, 157, 241); stop-opacity: 1;"></stop></linearGradient></defs><g data-v-423bf9ae="" id="01d79e63-7fe4-4926-9a25-fd1150fd3389" transform="matrix(1.213428639906353,0,0,1.213428639906353,-30.644431568071553,-14.756431079790303)" stroke="none" fill="url(#e9b470e8-9f21-4160-b0d8-cf1d4b2d8ccc)"><path d="M63.446 66.03c-5.805 0-10.527 4.723-10.527 10.528 0 5.805 4.723 10.527 10.527 10.527s10.527-4.723 10.527-10.527c.001-5.805-4.722-10.528-10.527-10.528zM36.554 40.705c-5.805 0-10.527 4.723-10.527 10.528 0 5.805 4.723 10.527 10.527 10.527s10.527-4.723 10.527-10.527c0-5.805-4.723-10.528-10.527-10.528zM63.446 39.647c-5.806 0-10.528 4.723-10.528 10.528 0 5.805 4.723 10.527 10.528 10.527 5.805 0 10.527-4.723 10.527-10.527.001-5.805-4.722-10.528-10.527-10.528zM63.446 33.97c5.805 0 10.527-4.723 10.527-10.527 0-5.806-4.723-10.528-10.527-10.528s-10.527 4.723-10.527 10.528c0 5.804 4.723 10.527 10.527 10.527zM36.451 28.163a4.727 4.727 0 0 0 4.721-4.722c0-2.603-2.118-4.72-4.721-4.72s-4.721 2.117-4.721 4.72a4.727 4.727 0 0 0 4.721 4.722zM36.554 72.896a4.726 4.726 0 0 0-4.721 4.72c0 2.604 2.118 4.722 4.721 4.722s4.721-2.118 4.721-4.722a4.727 4.727 0 0 0-4.721-4.72z"></path></g><!----></svg>