<svg data-v-fde0c5aa="" xmlns="http://www.w3.org/2000/svg" viewBox="0 0 300 300" class="iconLeft"><!----><defs data-v-fde0c5aa=""><!----></defs><rect data-v-fde0c5aa="" fill="#FFFFFF" x="0" y="0" width="300px" height="300px" class="logo-background-square"></rect><defs data-v-fde0c5aa=""><linearGradient data-v-fde0c5aa="" gradientTransform="rotate(25)" id="2ff5fa68-d073-43b4-a53e-5201f5b2342b" x1="0%" y1="0%" x2="100%" y2="0%"><stop data-v-fde0c5aa="" offset="0%" stop-color="#869DF1" stop-opacity="1"></stop><stop data-v-fde0c5aa="" offset="100%" stop-color="#869DF1" stop-opacity="1"></stop></linearGradient></defs><g data-v-fde0c5aa="" id="f8ce18e2-51b7-4d31-bb39-40b63d9f41cc" fill="url(#2ff5fa68-d073-43b4-a53e-5201f5b2342b)"><path d=""></path></g><defs data-v-fde0c5aa=""><linearGradient data-v-fde0c5aa="" gradientTransform="rotate(25)" id="ca7ef415-b1cb-4fd2-a55c-9090c2011d5d" x1="0%" y1="0%" x2="100%" y2="0%"><stop data-v-fde0c5aa="" offset="0%" stop-color="#010033" stop-opacity="1"></stop><stop data-v-fde0c5aa="" offset="100%" stop-color="#869DF1" stop-opacity="1"></stop></linearGradient></defs><g data-v-fde0c5aa="" id="b5802224-f011-4389-b885-103064a2a131" stroke="none" fill="url(#ca7ef415-b1cb-4fd2-a55c-9090c2011d5d)"><path d="M63.446 66.03c-5.805 0-10.527 4.723-10.527 10.528 0 5.805 4.723 10.527 10.527 10.527s10.527-4.723 10.527-10.527c.001-5.805-4.722-10.528-10.527-10.528zM36.554 40.705c-5.805 0-10.527 4.723-10.527 10.528 0 5.805 4.723 10.527 10.527 10.527s10.527-4.723 10.527-10.527c0-5.805-4.723-10.528-10.527-10.528zM63.446 39.647c-5.806 0-10.528 4.723-10.528 10.528 0 5.805 4.723 10.527 10.528 10.527 5.805 0 10.527-4.723 10.527-10.527.001-5.805-4.722-10.528-10.527-10.528zM63.446 33.97c5.805 0 10.527-4.723 10.527-10.527 0-5.806-4.723-10.528-10.527-10.528s-10.527 4.723-10.527 10.528c0 5.804 4.723 10.527 10.527 10.527zM36.451 28.163a4.727 4.727 0 0 0 4.721-4.722c0-2.603-2.118-4.72-4.721-4.72s-4.721 2.117-4.721 4.72a4.727 4.727 0 0 0 4.721 4.722zM36.554 72.896a4.726 4.726 0 0 0-4.721 4.72c0 2.604 2.118 4.722 4.721 4.722s4.721-2.118 4.721-4.722a4.727 4.727 0 0 0-4.721-4.72z"></path></g><!----></svg>