<svg height='100px' width='100px'  fill="#869df1" xmlns="http://www.w3.org/2000/svg" xmlns:xlink="http://www.w3.org/1999/xlink" version="1.1" x="0px" y="0px" viewBox="0 0 100 100" style="enable-background:new 0 0 100 100;" xml:space="preserve"><g><g><path d="M97.01,42.87l-5.04,0.6l-6.48,13.32L75.38,34.84l-5.39,1.06l-1.99-3.96l-5.66,1.43l-17.42,22L16.09,12.5L5.75,19.32    l34.98,47.91l3.32-4.43l-0.01-0.01l3.01-4l0.7,0.01l5.47,8.3l15.03-22.28L68.2,44.7l3.37-4.79l0,0l0.11-0.17L85.06,67.5l0.48-0.03    l2.55-5.58l2.44,5.09L99,47.58L97.01,42.87z M7.3,20.37l9.2-6.31l0.13,0.18l-9.2,6.31L7.3,20.37z M8.26,21.68l9.09-6.41l0.15,0.2    l-9.09,6.41L8.26,21.68z M9.22,22.98l8.95-6.48l0.16,0.22L9.38,23.2L9.22,22.98z M10.17,24.29l8.91-6.43l0.18,0.24l-8.91,6.43    L10.17,24.29z M11.13,25.6l8.75-6.54l0.19,0.27l-8.75,6.54L11.13,25.6z M12.08,26.9l8.77-6.39l0.21,0.29l-8.77,6.39L12.08,26.9z     M13.04,28.21l8.56-6.57l0.23,0.31l-8.56,6.57L13.04,28.21z M14,29.52l8.46-6.6l0.24,0.33l-8.46,6.6L14,29.52z M14.95,30.83    l8.25-6.79l0.26,0.36l-8.25,6.79L14.95,30.83z M15.91,32.13l8.2-6.75l0.28,0.38l-8.2,6.75L15.91,32.13z M16.87,33.44L25,26.73    l0.29,0.4l-8.14,6.71L16.87,33.44z M17.82,34.75l7.94-6.91l0.29,0.44l-7.92,6.9L17.82,34.75z M18.78,36.05l7.92-6.8l0.32,0.44    l-7.92,6.8L18.78,36.05z M19.73,37.36l7.84-6.83l0.32,0.48l-7.82,6.81L19.73,37.36z M20.69,38.67l7.78-6.8l0.34,0.5l-7.76,6.78    L20.69,38.67z M21.65,39.97l7.72-6.77l0.35,0.53l-7.7,6.75L21.65,39.97z M22.6,41.28l7.5-6.97l0.37,0.55l-7.48,6.95L22.6,41.28z     M23.56,42.59l7.4-7l0.38,0.57l-7.38,6.98L23.56,42.59z M24.51,43.9l7.35-6.96l0.4,0.6l-7.32,6.94L24.51,43.9z M25.47,45.2    l7.24-7.01l0.42,0.62l-7.21,6.99L25.47,45.2z M26.43,46.51l7.19-6.96l0.43,0.64l-7.17,6.94L26.43,46.51z M27.38,47.82l7.07-7.01    l0.45,0.66l-7.05,6.99L27.38,47.82z M28.34,49.12l6.89-7.17l0.46,0.69l-6.87,7.14L28.34,49.12z M29.29,50.43l6.85-7.14L36.62,44    l-6.82,7.12L29.29,50.43z M30.25,51.74l6.76-7.12l0.49,0.73l-6.73,7.1L30.25,51.74z M31.21,53.05l6.67-7.14l0.51,0.76l-6.64,7.11    L31.21,53.05z M32.16,54.35l6.59-7.14l0.52,0.78l-6.56,7.12L32.16,54.35z M33.12,55.66l6.47-7.2l0.54,0.8l-6.44,7.17L33.12,55.66z     M34.08,56.97l6.36-7.25l0.55,0.83l-6.33,7.22L34.08,56.97z M35.03,58.27l6.25-7.29l0.57,0.85l-6.22,7.26L35.03,58.27z     M35.99,59.58l6.21-7.23l0.58,0.87l-6.18,7.21L35.99,59.58z M36.94,60.89l6.15-7.2l0.6,0.89l-6.12,7.18L36.94,60.89z M37.9,62.2    l6.13-7.11l0.55,0.82l-6.03,7.18L37.9,62.2z M38.86,63.5l6.07-7.09l0.55,0.82l-5.95,7.18L38.86,63.5z M40.49,65.95l-0.68-1.14    l5.93-7.17l0.65,0.96L40.49,65.95z M47.75,58.41l-0.73,0l-1.81-2.71l17.31-22.11l5-1.2L47.75,58.41z M71.12,39.65l-8.8,12.84    l8.67-13l-1.51-2.64l1.72,2.72L71.12,39.65z M70.11,36.17l4.91-0.99l-3.14,4.04L70.11,36.17z M72.1,39.62l3.2-4.3l0.05,0.11    l-3.2,4.3L72.1,39.62z M72.45,40.33l3.08-4.53l0.06,0.12l-3.08,4.53L72.45,40.33z M72.83,41.12l3.04-4.58l0.06,0.14l-3.04,4.58    L72.83,41.12z M73.21,41.92l3.02-4.6l0.07,0.15l-3.02,4.6L73.21,41.92z M73.59,42.71l3.04-4.53l0.08,0.16l-3.04,4.53L73.59,42.71z     M73.98,43.51l2.99-4.62l0.08,0.18l-2.99,4.62L73.98,43.51z M74.36,44.3l2.97-4.64l0.09,0.19l-2.97,4.64L74.36,44.3z M74.74,45.1    l2.99-4.57l0.1,0.2l-2.99,4.57L74.74,45.1z M75.12,45.89l2.96-4.61l0.1,0.22l-2.96,4.61L75.12,45.89z M75.51,46.69l2.92-4.67    l0.11,0.23l-2.92,4.67L75.51,46.69z M75.89,47.48l2.89-4.7l0.12,0.24L76,47.72L75.89,47.48z M76.27,48.28l2.91-4.66l0.11,0.26    l-2.9,4.66L76.27,48.28z M76.65,49.07l2.87-4.71l0.13,0.27l-2.87,4.71L76.65,49.07z M77.03,49.87l2.84-4.76L80,45.39l-2.83,4.76    L77.03,49.87z M77.42,50.66l2.82-4.78l0.13,0.3l-2.81,4.77L77.42,50.66z M77.8,51.46l2.83-4.73l0.14,0.32l-2.82,4.73L77.8,51.46z     M78.18,52.25l2.83-4.7l0.14,0.33l-2.82,4.69L78.18,52.25z M78.56,53.05l2.79-4.77l0.15,0.34l-2.78,4.76L78.56,53.05z     M78.95,53.84l2.74-4.85l0.16,0.36l-2.73,4.84L78.95,53.84z M79.33,54.63l2.71-4.89l0.16,0.37L79.5,55L79.33,54.63z M79.71,55.43    l2.69-4.92l0.17,0.39l-2.67,4.92L79.71,55.43z M80.09,56.22l2.67-4.94l0.17,0.4l-2.65,4.93L80.09,56.22z M80.47,57.02l2.66-4.94    l0.18,0.41l-2.64,4.93L80.47,57.02z M80.86,57.81l2.65-4.93l0.19,0.43l-2.64,4.92L80.86,57.81z M81.24,58.61l2.63-4.95l0.19,0.44    l-2.61,4.94L81.24,58.61z M81.62,59.4l2.63-4.93l0.2,0.45l-2.61,4.92L81.62,59.4z M82,60.2l2.58-5.02l0.2,0.47l-2.56,5.01L82,60.2    z M82.39,60.99l2.57-5.01l0.21,0.48l-2.55,5L82.39,60.99z M82.77,61.79l2.59-4.95l0.22,0.5L83,62.28L82.77,61.79z M83.15,62.58    l2.53-5.04l0.22,0.51l-2.51,5.03L83.15,62.58z M83.53,63.38l2.51-5.06l0.23,0.52l-2.5,5.05L83.53,63.38z M83.91,64.17l2.51-5.03    l0.23,0.54l-2.5,5.02L83.91,64.17z M84.3,64.97l2.58-4.87l0.21,0.49l-2.53,4.92L84.3,64.97z M84.95,66.32l-0.27-0.55l2.52-4.96    l0.21,0.49L84.95,66.32z M85.33,67.13l-0.27-0.57l2.44-5.12l0.25,0.58L85.33,67.13z M87.93,61.5l-2.13-4.54l6.3-13.16l4.45-0.55    L87.93,61.5z"></path><polygon points="1,22.47 35,67.07 40.5,67.38 5.45,19.48   "></polygon><polygon points="79.78,67.14 84.91,67.5 71.57,39.91 68.26,44.82   "></polygon><polygon points="44.1,62.86 47.33,66.92 53.13,67.23 47.58,58.8 47.06,58.79 44.05,62.8   "></polygon><polygon points="85.91,66.72 90.48,67.11 88.07,62.02   "></polygon></g></g></svg>