<svg data-v-fde0c5aa="" xmlns="http://www.w3.org/2000/svg" viewBox="0 0 300 300" class="font"><!----><defs data-v-fde0c5aa=""><!----></defs><rect data-v-fde0c5aa="" fill="#FFFFFF" x="0" y="0" width="300px" height="300px" class="logo-background-square"></rect><defs data-v-fde0c5aa=""><linearGradient data-v-fde0c5aa="" gradientTransform="rotate(25)" id="f073cfad-94fd-4e01-9298-ba099697fbb7" x1="0%" y1="0%" x2="100%" y2="0%"><stop data-v-fde0c5aa="" offset="0%" stop-color="#869DF1" stop-opacity="1"></stop><stop data-v-fde0c5aa="" offset="100%" stop-color="#869DF1" stop-opacity="1"></stop></linearGradient></defs><g data-v-fde0c5aa="" id="ec018711-51bc-48e4-9a3c-d2c4ee861b46" fill="url(#f073cfad-94fd-4e01-9298-ba099697fbb7)" transform="matrix(12.88056211842558,0,0,12.88056211842558,36.393442591486014,40.450817708727094)"><path d="M9.83 4.68L9.83 4.68Q10.01 4.68 10.11 4.79L10.11 4.79L10.11 4.79Q10.21 4.90 10.21 5.07L10.21 5.07L10.21 5.07Q10.21 5.17 10.16 5.28L10.16 5.28L7.91 12.07L7.91 12.07Q7.87 12.19 7.76 12.26L7.76 12.26L7.76 12.26Q7.66 12.33 7.50 12.33L7.50 12.33L7.50 12.33Q7.36 12.33 7.25 12.26L7.25 12.26L7.25 12.26Q7.14 12.19 7.11 12.07L7.11 12.07L5.21 6.15L3.36 12.07L3.36 12.07Q3.26 12.33 2.97 12.33L2.97 12.33L2.97 12.33Q2.83 12.33 2.72 12.26L2.72 12.26L2.72 12.26Q2.62 12.19 2.58 12.07L2.58 12.07L0.31 5.28L0.31 5.28Q0.28 5.11 0.28 5.05L0.28 5.05L0.28 5.05Q0.28 4.68 0.63 4.68L0.63 4.68L0.63 4.68Q0.76 4.68 0.86 4.74L0.86 4.74L0.86 4.74Q0.97 4.80 1.02 4.93L1.02 4.93L3.00 10.89L4.82 5.01L4.82 5.01Q4.86 4.86 4.97 4.77L4.97 4.77L4.97 4.77Q5.08 4.68 5.24 4.68L5.24 4.68L5.24 4.68Q5.54 4.68 5.66 5.01L5.66 5.01L7.49 10.78L9.44 4.93L9.44 4.93Q9.55 4.68 9.83 4.68L9.83 4.68ZM14.36 4.59L14.36 4.59Q16.13 4.59 17.04 5.85L17.04 5.85L17.04 5.85Q17.12 5.95 17.12 6.09L17.12 6.09L17.12 6.09Q17.12 6.29 16.90 6.41L16.90 6.41L16.90 6.41Q16.76 6.47 16.69 6.47L16.69 6.47L16.69 6.47Q16.48 6.47 16.34 6.29L16.34 6.29L16.34 6.29Q15.62 5.38 14.34 5.38L14.34 5.38L14.34 5.38Q13.48 5.38 12.98 5.75L12.98 5.75L12.98 5.75Q12.47 6.12 12.47 6.66L12.47 6.66L12.47 6.66Q12.47 7.22 12.96 7.56L12.96 7.56L12.96 7.56Q13.44 7.90 14.57 8.06L14.57 8.06L14.57 8.06Q16.06 8.27 16.71 8.86L16.71 8.86L16.71 8.86Q17.36 9.44 17.36 10.26L17.36 10.26L17.36 10.26Q17.36 10.91 16.95 11.40L16.95 11.40L16.95 11.40Q16.53 11.89 15.85 12.15L15.85 12.15L15.85 12.15Q15.16 12.42 14.35 12.42L14.35 12.42L14.35 12.42Q13.54 12.42 12.77 12.13L12.77 12.13L12.77 12.13Q12.00 11.84 11.49 11.26L11.49 11.26L11.49 11.26Q11.40 11.14 11.40 11.00L11.40 11.00L11.40 11.00Q11.40 10.81 11.58 10.68L11.58 10.68L11.58 10.68Q11.66 10.61 11.82 10.61L11.82 10.61L11.82 10.61Q12.01 10.61 12.14 10.77L12.14 10.77L12.14 10.77Q12.84 11.62 14.39 11.62L14.39 11.62L14.39 11.62Q15.50 11.62 16.02 11.23L16.02 11.23L16.02 11.23Q16.55 10.84 16.55 10.22L16.55 10.22L16.55 10.22Q16.55 9.11 14.41 8.81L14.41 8.81L14.41 8.81Q13.05 8.61 12.36 8.06L12.36 8.06L12.36 8.06Q11.66 7.52 11.66 6.75L11.66 6.75L11.66 6.75Q11.66 5.73 12.41 5.16L12.41 5.16L12.41 5.16Q13.16 4.59 14.36 4.59L14.36 4.59Z"></path></g><!----><!----></svg>